<?xml version="1.0" encoding="utf-8"?>
<!-- Generator: Adobe Illustrator 21.1.0, SVG Export Plug-In . SVG Version: 6.00 Build 0)  -->
<svg version="1.1" xmlns="http://www.w3.org/2000/svg" xmlns:xlink="http://www.w3.org/1999/xlink" x="0px" y="0px" width="96px"
	 height="96px" viewBox="0 0 96 96" enable-background="new 0 0 96 96" xml:space="preserve">
<g id="guides">
</g>
<g id="Darth-Vader">
</g>
<g id="Storm-Trooper">
</g>
<g id="Storm-Trooper-2">
</g>
<g id="Storm-Trooper-3">
</g>
<g id="Death-Star">
</g>
<g id="Falcon">
</g>
<g id="Kylo">
</g>
<g id="Boba-Fett">
</g>
<g id="R2D2">
</g>
<g id="Battle-Droid">
</g>
<g id="BB8">
	<g>
		<path fill="none" stroke="#000000" stroke-width="4" stroke-linecap="round" stroke-linejoin="round" stroke-miterlimit="10" d="
			M11.672,42.046C4.301,29.278,8.676,12.952,21.443,5.581c12.768-7.371,29.094-2.997,36.465,9.771"/>
		
			<polyline fill="none" stroke="#000000" stroke-width="4" stroke-linecap="round" stroke-linejoin="round" stroke-miterlimit="10" points="
			57.908,15.352 55.954,22.645 18.965,44 11.672,42.046 		"/>
		
			<ellipse transform="matrix(0.866 -0.5 0.5 0.866 -5.9808 17.6799)" fill="none" stroke="#000000" stroke-width="4" stroke-linecap="round" stroke-miterlimit="10" cx="30" cy="20" rx="7.999" ry="7.999"/>
		<g>
			
				<ellipse transform="matrix(0.866 -0.5 0.5 0.866 -2.2034 25.7764)" fill="none" stroke="#000000" stroke-width="4" stroke-linecap="round" stroke-linejoin="round" stroke-miterlimit="10" cx="47" cy="17" rx="1" ry="1"/>
		</g>
	</g>
	<g>
		
			<circle fill="none" stroke="#000000" stroke-width="4" stroke-linecap="round" stroke-linejoin="round" stroke-miterlimit="10" cx="61" cy="51" r="1"/>
	</g>
	<g>
		
			<circle fill="none" stroke="#000000" stroke-width="4" stroke-linecap="round" stroke-linejoin="round" stroke-miterlimit="10" cx="34" cy="74" r="1"/>
	</g>
	<path fill="none" stroke="#000000" stroke-width="4" stroke-linecap="round" stroke-linejoin="round" stroke-miterlimit="10" d="
		M53.673,24.039C72.226,24.912,87,40.231,87,59c0,19.33-15.67,35-35,35S17,78.33,17,59c0-5.255,1.093-11.222,3.169-15.695"/>
	<path fill="none" stroke="#000000" stroke-width="4" stroke-linecap="round" stroke-linejoin="round" stroke-miterlimit="10" d="
		M86.774,55.016C74.201,48.017,63.96,37.335,57.508,24.43"/>
	<path fill="none" stroke="#000000" stroke-width="4" stroke-linecap="round" stroke-linejoin="round" stroke-miterlimit="10" d="
		M49.885,93.938c-2.821-1.464-4.99-3.673-6.099-6.516c-3.055-7.826,3.071-17.494,13.682-21.593
		c10.612-4.099,21.691-1.078,24.746,6.748c0.361,0.924,0.593,1.873,0.706,2.836"/>
	<path fill="none" stroke="#000000" stroke-width="4" stroke-linecap="round" stroke-linejoin="round" stroke-miterlimit="10" d="
		M17.266,63.284C19.959,64.39,22.908,65,26,65c12.702,0,23-10.298,23-23c0-4.829-1.489-9.311-4.032-13.011"/>
	
		<line fill="none" stroke="#000000" stroke-width="4" stroke-linecap="round" stroke-linejoin="round" stroke-miterlimit="10" x1="40.834" y1="59.577" x2="50.1" y2="70.095"/>
	
		<line fill="none" stroke="#000000" stroke-width="4" stroke-linecap="round" stroke-linejoin="round" stroke-miterlimit="10" x1="79.726" y1="50.534" x2="76.124" y2="66.067"/>
	
		<line fill="none" stroke="#000000" stroke-width="4" stroke-linecap="round" stroke-linejoin="round" stroke-miterlimit="10" x1="47.404" y1="33.564" x2="61.166" y2="30.884"/>
	
		<line fill="none" stroke="#000000" stroke-width="4" stroke-linecap="round" stroke-linejoin="round" stroke-miterlimit="10" x1="7" y1="94" x2="2" y2="94"/>
	
		<line fill="none" stroke="#000000" stroke-width="4" stroke-linecap="round" stroke-linejoin="round" stroke-miterlimit="10" x1="79" y1="94" x2="15" y2="94"/>
	
		<line fill="none" stroke="#000000" stroke-width="4" stroke-linecap="round" stroke-linejoin="round" stroke-miterlimit="10" x1="94" y1="94" x2="87" y2="94"/>
	<path fill="none" stroke="#000000" stroke-width="4" stroke-linecap="round" stroke-linejoin="round" stroke-miterlimit="10" d="
		M33.426,35.653C35.592,37.229,37,39.783,37,42.667c0,4.786-3.88,8.667-8.667,8.667c-4.482,0-8.169-3.402-8.62-7.765"/>
	<path fill="none" stroke="#000000" stroke-width="4" stroke-linecap="round" stroke-linejoin="round" stroke-miterlimit="10" d="
		M71.935,80.777c0.558,3.649-2.542,7.602-6.924,8.83c-4.382,1.227-8.387-0.736-8.946-4.384c-0.558-3.649,2.542-7.602,6.924-8.83
		C67.372,75.166,71.377,77.129,71.935,80.777z"/>
</g>
<g id="C3PO">
</g>
<g id="BONUS">
</g>
</svg>
