<?xml version="1.0" encoding="utf-8"?>
<!-- Generator: Adobe Illustrator 21.1.0, SVG Export Plug-In . SVG Version: 6.00 Build 0)  -->
<svg version="1.1" xmlns="http://www.w3.org/2000/svg" xmlns:xlink="http://www.w3.org/1999/xlink" x="0px" y="0px" width="96px"
	 height="96px" viewBox="0 0 96 96" enable-background="new 0 0 96 96" xml:space="preserve">
<g id="guides">
</g>
<g id="Darth-Vader">
</g>
<g id="Storm-Trooper">
</g>
<g id="Storm-Trooper-2">
</g>
<g id="Storm-Trooper-3">
</g>
<g id="Death-Star">
</g>
<g id="Falcon">
</g>
<g id="Kylo">
</g>
<g id="Boba-Fett">
</g>
<g id="R2D2">
</g>
<g id="Battle-Droid">
</g>
<g id="BB8">
</g>
<g id="C3PO">
	
		<polyline fill="none" stroke="#000000" stroke-width="4" stroke-linecap="round" stroke-linejoin="round" stroke-miterlimit="10" points="
		14.124,65.475 7,63 5,45 11.001,42.791 	"/>
	
		<polyline fill="none" stroke="#000000" stroke-width="4" stroke-linecap="round" stroke-linejoin="round" stroke-miterlimit="10" points="
		81.95,65.235 88.954,63 90.954,45 85,42.875 	"/>
	
		<polyline fill="none" stroke="#000000" stroke-width="4" stroke-linecap="round" stroke-linejoin="round" stroke-miterlimit="10" points="
		68.635,89.335 76.954,87 77,87 76.976,76.54 	"/>
	
		<polyline fill="none" stroke="#000000" stroke-width="4" stroke-linecap="round" stroke-linejoin="round" stroke-miterlimit="10" points="
		27.887,89.732 19.01,87 19,87 19.006,76.509 	"/>
	<g>
		<circle fill="none" stroke="#000000" stroke-width="4" stroke-linecap="round" stroke-miterlimit="10" cx="64" cy="52" r="1"/>
	</g>
	<circle fill="none" stroke="#000000" stroke-width="4" stroke-linecap="round" stroke-miterlimit="10" cx="64" cy="52" r="12"/>
	
		<line fill="none" stroke="#000000" stroke-width="4" stroke-linecap="round" stroke-miterlimit="10" x1="64" y1="59" x2="64" y2="64"/>
	
		<line fill="none" stroke="#000000" stroke-width="4" stroke-linecap="round" stroke-miterlimit="10" x1="64" y1="40" x2="64" y2="45"/>
	
		<line fill="none" stroke="#000000" stroke-width="4" stroke-linecap="round" stroke-miterlimit="10" x1="70" y1="42" x2="70" y2="62.346"/>
	
		<line fill="none" stroke="#000000" stroke-width="4" stroke-linecap="round" stroke-miterlimit="10" x1="58" y1="41.568" x2="58" y2="62.346"/>
	<g>
		<circle fill="none" stroke="#000000" stroke-width="4" stroke-linecap="round" stroke-miterlimit="10" cx="32" cy="52" r="1"/>
	</g>
	<circle fill="none" stroke="#000000" stroke-width="4" stroke-linecap="round" stroke-miterlimit="10" cx="32" cy="52" r="12"/>
	
		<line fill="none" stroke="#000000" stroke-width="4" stroke-linecap="round" stroke-miterlimit="10" x1="32" y1="59" x2="32" y2="64"/>
	
		<line fill="none" stroke="#000000" stroke-width="4" stroke-linecap="round" stroke-miterlimit="10" x1="32" y1="40" x2="32" y2="45"/>
	
		<line fill="none" stroke="#000000" stroke-width="4" stroke-linecap="round" stroke-miterlimit="10" x1="38" y1="41.606" x2="38" y2="62.346"/>
	
		<line fill="none" stroke="#000000" stroke-width="4" stroke-linecap="round" stroke-miterlimit="10" x1="26" y1="41.605" x2="26" y2="62.346"/>
	<polyline fill="none" stroke="#000000" stroke-width="4" stroke-linecap="round" stroke-miterlimit="10" points="44,69.071 
		47.917,66 52,69.071 	"/>
	
		<rect x="45" y="72" transform="matrix(-1.836970e-16 1 -1 -1.836970e-16 129 33)" fill="none" stroke="#000000" stroke-width="4" stroke-linecap="round" stroke-linejoin="round" stroke-miterlimit="10" width="6" height="18"/>
	<path fill="none" stroke="#000000" stroke-width="4" stroke-linecap="round" stroke-linejoin="round" stroke-miterlimit="10" d="
		M57,81h17l-0.067-0.053C80.44,72.712,85,60.309,85,43c0-14.011-11.938-29.07-34-29.07h-6c-22.062,0-34,15.059-34,29.07
		c0,17.309,4.56,29.712,11.067,37.947L22,81h17"/>
	<path fill="none" stroke="#000000" stroke-width="4" stroke-linecap="round" stroke-linejoin="round" stroke-miterlimit="10" d="
		M71.2,81l-3.131,10.176C67.552,92.855,66.002,94,64.246,94H32.154c-1.756,0-3.307-1.145-3.823-2.824L25.2,81"/>
	<path fill="none" stroke="#000000" stroke-width="4" stroke-linecap="round" stroke-linejoin="round" stroke-miterlimit="10" d="
		M11,41C11,19.461,29.222,2,48,2c18.778,0,37,17.461,37,39"/>
	<g>
		
			<circle fill="none" stroke="#000000" stroke-width="4" stroke-linecap="round" stroke-linejoin="round" stroke-miterlimit="10" cx="48" cy="8" r="1"/>
	</g>
</g>
<g id="BONUS">
</g>
</svg>
