<?xml version="1.0" encoding="utf-8"?>
<!-- Generator: Adobe Illustrator 21.1.0, SVG Export Plug-In . SVG Version: 6.00 Build 0)  -->
<svg version="1.1" xmlns="http://www.w3.org/2000/svg" xmlns:xlink="http://www.w3.org/1999/xlink" x="0px" y="0px" width="96px"
	 height="96px" viewBox="0 0 96 96" enable-background="new 0 0 96 96" xml:space="preserve">
<g id="guides">
</g>
<g id="Darth-Vader">
	<path fill="none" stroke="#000000" stroke-width="4" stroke-linecap="round" stroke-linejoin="round" stroke-miterlimit="10" d="
		M53,63c2.02,1.318,7.757,2.091,13,2.042"/>
	<path fill="none" stroke="#000000" stroke-width="4" stroke-linecap="round" stroke-linejoin="round" stroke-miterlimit="10" d="
		M43,63c-2.02,1.318-7.757,2.091-13,2.042"/>
	
		<polyline fill="none" stroke="#000000" stroke-width="4" stroke-linecap="round" stroke-linejoin="round" stroke-miterlimit="10" points="
		44,20 44,2 52,2 52,35 44,35 44,30 	"/>
	<path fill="none" stroke="#000000" stroke-width="4" stroke-linecap="round" stroke-linejoin="round" stroke-miterlimit="10" d="
		M43,62.75c0-2.761,2.239-4.75,5-4.75s5,1.989,5,4.75V68H43V62.75z"/>
	
		<ellipse transform="matrix(0.7071 -0.7071 0.7071 0.7071 -51.0244 46.8162)" fill="none" stroke="#000000" stroke-width="4" stroke-linecap="round" stroke-linejoin="round" stroke-miterlimit="10" cx="31" cy="85" rx="3" ry="3"/>
	
		<ellipse transform="matrix(0.7071 -0.7071 0.7071 0.7071 -41.066 70.8579)" fill="none" stroke="#000000" stroke-width="4" stroke-linecap="round" stroke-linejoin="round" stroke-miterlimit="10" cx="65" cy="85" rx="3" ry="3"/>
	
		<line fill="none" stroke="#000000" stroke-width="4" stroke-linecap="round" stroke-linejoin="round" stroke-miterlimit="10" x1="34" y1="85" x2="62" y2="85"/>
	
		<line fill="none" stroke="#000000" stroke-width="4" stroke-linecap="round" stroke-linejoin="round" stroke-miterlimit="10" x1="32.828" y1="82.172" x2="43" y2="67"/>
	
		<line fill="none" stroke="#000000" stroke-width="4" stroke-linecap="round" stroke-linejoin="round" stroke-miterlimit="10" x1="63.172" y1="82.172" x2="53" y2="67"/>
	
		<line fill="none" stroke="#000000" stroke-width="4" stroke-linecap="round" stroke-linejoin="round" stroke-miterlimit="10" x1="48" y1="68" x2="48" y2="85"/>
	
		<line fill="none" stroke="#000000" stroke-width="4" stroke-linecap="round" stroke-linejoin="round" stroke-miterlimit="10" x1="42" y1="69" x2="42" y2="84"/>
	
		<line fill="none" stroke="#000000" stroke-width="4" stroke-linecap="round" stroke-linejoin="round" stroke-miterlimit="10" x1="54" y1="69" x2="54" y2="85"/>
	
		<line fill="none" stroke="#000000" stroke-width="4" stroke-linecap="round" stroke-linejoin="round" stroke-miterlimit="10" x1="60" y1="78" x2="60" y2="85"/>
	
		<line fill="none" stroke="#000000" stroke-width="4" stroke-linecap="round" stroke-linejoin="round" stroke-miterlimit="10" x1="36" y1="78" x2="36" y2="85"/>
	<path fill="none" stroke="#000000" stroke-width="4" stroke-linecap="round" stroke-linejoin="round" stroke-miterlimit="10" d="
		M41.882,43.278c1.069,1.177,1.037,5.333,1.037,5.333s0.143,5.395-1.037,6.176c-3.712,2.457-17.58,3.178-20.714,0
		c-3.134-3.178,0.199-8.722,4.013-11.509C29.296,40.27,38.88,39.972,41.882,43.278z"/>
	<path fill="none" stroke="#000000" stroke-width="4" stroke-linecap="round" stroke-linejoin="round" stroke-miterlimit="10" d="
		M53.968,43.278c-1.069,1.177-1.037,5.333-1.037,5.333s-0.143,5.395,1.037,6.176c3.712,2.457,17.58,3.178,20.714,0
		c3.134-3.178-0.199-8.722-4.013-11.509C66.554,40.27,56.971,39.972,53.968,43.278z"/>
	
		<line fill="none" stroke="#000000" stroke-width="4" stroke-linecap="round" stroke-miterlimit="10" x1="67.121" y1="82.879" x2="74.833" y2="69.586"/>
	<path fill="none" stroke="#000000" stroke-width="4" stroke-linecap="round" stroke-miterlimit="10" d="M26.91,19.433
		c4.31-4.664,10.376-7.836,17.09-8.804"/>
	<path fill="none" stroke="#000000" stroke-width="4" stroke-linecap="round" stroke-miterlimit="10" d="M21.873,27.227
		c0.399-0.943,0.85-1.858,1.349-2.74"/>
	
		<line fill="none" stroke="#000000" stroke-width="4" stroke-linecap="round" stroke-miterlimit="10" x1="28.879" y1="82.879" x2="21.167" y2="69.586"/>
	<path fill="none" stroke="#000000" stroke-width="4" stroke-linecap="round" stroke-miterlimit="10" d="M76.098,82.957
		C83,82,91.903,78.837,93.225,78.149"/>
	<path fill="none" stroke="#000000" stroke-width="4" stroke-linecap="round" stroke-miterlimit="10" d="M20.225,82.957
		C13.323,82,4.098,78.762,2.776,78.074"/>
	<path fill="none" stroke="#000000" stroke-width="4" stroke-linecap="round" stroke-miterlimit="10" d="M83,45
		c0,0-8.333-18.167-31-10"/>
	<path fill="none" stroke="#000000" stroke-width="4" stroke-linecap="round" stroke-miterlimit="10" d="M13,45
		c0,0,8.333-18.167,31-10"/>
	<path fill="none" stroke="#000000" stroke-width="4" stroke-linecap="round" stroke-miterlimit="10" d="M44,4.231
		C26.568,6.234,13,21.037,13,39v6L3.364,76.343c-1.781,4.782-2.333,9.574,1.01,11.314C14.157,92.749,36.893,94,47.995,94
		s33.836-1.251,43.619-6.343c3.343-1.74,2.782-6.532,1.001-11.314L82.959,45L83,40.031L82.959,39
		C82.959,21.037,69.427,6.234,52,4.231"/>
</g>
<g id="Storm-Trooper">
</g>
<g id="Storm-Trooper-2">
</g>
<g id="Storm-Trooper-3">
</g>
<g id="Death-Star">
</g>
<g id="Falcon">
</g>
<g id="Kylo">
</g>
<g id="Boba-Fett">
</g>
<g id="R2D2">
</g>
<g id="Battle-Droid">
</g>
<g id="BB8">
</g>
<g id="C3PO">
</g>
<g id="BONUS">
</g>
</svg>
