<?xml version="1.0" encoding="utf-8"?>
<!-- Generator: Adobe Illustrator 21.1.0, SVG Export Plug-In . SVG Version: 6.00 Build 0)  -->
<svg version="1.1" xmlns="http://www.w3.org/2000/svg" xmlns:xlink="http://www.w3.org/1999/xlink" x="0px" y="0px" width="96px"
	 height="96px" viewBox="0 0 96 96" enable-background="new 0 0 96 96" xml:space="preserve">
<g id="guides">
</g>
<g id="Darth-Vader">
</g>
<g id="Storm-Trooper">
</g>
<g id="Storm-Trooper-2">
</g>
<g id="Storm-Trooper-3">
</g>
<g id="Death-Star">
</g>
<g id="Falcon">
	
		<line fill="none" stroke="#000000" stroke-width="4" stroke-linecap="round" stroke-linejoin="round" stroke-miterlimit="10" x1="33.163" y1="45.839" x2="15.75" y2="28.427"/>
	
		<line fill="none" stroke="#000000" stroke-width="4" stroke-linecap="round" stroke-linejoin="round" stroke-miterlimit="10" x1="40.877" y1="39.411" x2="22.987" y2="21.521"/>
	<g>
		
			<ellipse transform="matrix(0.7071 -0.7071 0.7071 0.7071 -45.3078 37.4554)" fill="none" stroke="#000000" stroke-width="4" stroke-linecap="round" stroke-linejoin="round" stroke-miterlimit="10" cx="22.559" cy="73.419" rx="1" ry="1"/>
	</g>
	<g>
		
			<ellipse transform="matrix(0.7071 -0.7071 0.7071 0.7071 -38.2368 40.3845)" fill="none" stroke="#000000" stroke-width="4" stroke-linecap="round" stroke-linejoin="round" stroke-miterlimit="10" cx="29.63" cy="66.348" rx="1" ry="1"/>
	</g>
	<g>
		
			<circle fill="none" stroke="#000000" stroke-width="4" stroke-linecap="round" stroke-linejoin="round" stroke-miterlimit="10" cx="15.584" cy="61.752" r="1"/>
	</g>
	<g>
		
			<circle fill="none" stroke="#000000" stroke-width="4" stroke-linecap="round" stroke-linejoin="round" stroke-miterlimit="10" cx="24.584" cy="57.509" r="1"/>
	</g>
	<g>
		
			<circle fill="none" stroke="#000000" stroke-width="4" stroke-linecap="round" stroke-linejoin="round" stroke-miterlimit="10" cx="34.226" cy="80.394" r="1"/>
	</g>
	<g>
		
			<circle fill="none" stroke="#000000" stroke-width="4" stroke-linecap="round" stroke-linejoin="round" stroke-miterlimit="10" cx="38.469" cy="71.394" r="1"/>
	</g>
	
		<polyline fill="none" stroke="#000000" stroke-width="4" stroke-linecap="round" stroke-linejoin="round" stroke-miterlimit="10" points="
		49.819,40.502 84.077,6.244 79.834,2.001 32.686,16.495 	"/>
	
		<line fill="none" stroke="#000000" stroke-width="4" stroke-linecap="round" stroke-linejoin="round" stroke-miterlimit="10" x1="74.178" y1="16.143" x2="79.834" y2="21.8"/>
	<path fill="none" stroke="#000000" stroke-width="4" stroke-linecap="round" stroke-linejoin="round" stroke-miterlimit="10" d="
		M73.319,28.315c5.669,7.034,8.288,15.854,8.05,24.413"/>
	
		<polyline fill="none" stroke="#000000" stroke-width="4" stroke-linecap="round" stroke-linejoin="round" stroke-miterlimit="10" points="
		55.116,46.472 89.734,11.901 93.977,16.143 82.916,51.247 	"/>
	<path fill="none" stroke="#000000" stroke-width="4" stroke-linecap="round" stroke-linejoin="round" stroke-miterlimit="10" d="
		M58.994,57.528l25.79,5.991l7.778-7.778c1.945-1.945,1.945-5.127,0-7.071l0,0c-1.944-1.944-5.126-1.944-7.071,0l-4.152,4.088
		l-26.222-6.286"/>
	
		<line fill="none" stroke="#000000" stroke-width="4" stroke-linecap="round" stroke-linejoin="round" stroke-miterlimit="10" x1="74.542" y1="73.076" x2="55.566" y2="54.205"/>
	
		<line fill="none" stroke="#000000" stroke-width="4" stroke-linecap="round" stroke-linejoin="round" stroke-miterlimit="10" x1="67.662" y1="80.339" x2="49.284" y2="61.777"/>
	
		<ellipse transform="matrix(0.7071 -0.7071 0.7071 0.7071 -23.1751 46.0499)" fill="none" stroke="#000000" stroke-width="4" stroke-linecap="round" stroke-miterlimit="10" cx="44" cy="51" rx="12" ry="12"/>
	
		<line fill="none" stroke="#000000" stroke-width="4" stroke-linecap="round" stroke-linejoin="round" stroke-miterlimit="10" x1="7.954" y1="46" x2="33.163" y2="45.839"/>
	
		<line fill="none" stroke="#000000" stroke-width="4" stroke-linecap="round" stroke-linejoin="round" stroke-miterlimit="10" x1="49.961" y1="88.093" x2="49.25" y2="61.777"/>
	<path fill="none" stroke="#000000" stroke-width="4" stroke-linecap="round" stroke-linejoin="round" stroke-miterlimit="10" d="
		M80.043,62.418c-1.717,5.578-4.783,10.83-9.197,15.244c-5.826,5.826-13.113,9.303-20.681,10.431l-5.961,5.906l0,0
		c-10,0-21.514-4.149-29.813-12.448c-8.28-8.28-12.43-19.128-12.448-29.98l0,0L7.954,46c1.155-7.507,4.784-14.882,10.566-20.664
		c13.459-13.459,34.708-14.382,49.235-2.767"/>
</g>
<g id="Kylo">
</g>
<g id="Boba-Fett">
</g>
<g id="R2D2">
</g>
<g id="Battle-Droid">
</g>
<g id="BB8">
</g>
<g id="C3PO">
</g>
<g id="BONUS">
</g>
</svg>
