<?xml version="1.0" encoding="UTF-8" standalone="no"?>
<svg
   xmlns:dc="http://purl.org/dc/elements/1.1/"
   xmlns:cc="http://creativecommons.org/ns#"
   xmlns:rdf="http://www.w3.org/1999/02/22-rdf-syntax-ns#"
   xmlns:svg="http://www.w3.org/2000/svg"
   xmlns="http://www.w3.org/2000/svg"
   viewBox="0 0 258.66666 258.66666"
   height="258.66666"
   width="258.66666"
   xml:space="preserve"
   id="svg2"
   version="1.1"><metadata
     id="metadata8"><rdf:RDF><cc:Work
         rdf:about=""><dc:format>image/svg+xml</dc:format><dc:type
           rdf:resource="http://purl.org/dc/dcmitype/StillImage" /></cc:Work></rdf:RDF></metadata><defs
     id="defs6" /><g
     transform="matrix(1.3333333,0,0,-1.3333333,0,258.66667)"
     id="g10"><g
       transform="scale(0.1)"
       id="g12"><path
         id="path14"
         style="fill:transparent;fill-opacity:1;fill-rule:evenodd;stroke:none"
         d="M 2.59766,1933.23 H 1930.16 V 5.66797 H 2.59766 V 1933.23" /><path
         id="path16"
         style="fill:#bfc0c6;fill-opacity:1;fill-rule:evenodd;stroke:none"
         d="M 59.293,1121.08 V 994.574 c 0,0 327.016,0 370.031,0 43.008,0 97.961,39.766 97.961,105.556 0,26.47 10.121,43.72 -20.98,78.72 l -47.332,56.09 c -27.121,25.3 3.242,25.3 26.011,25.3 12.653,0 156.235,0 156.235,0 V 994.574 h 123.898 v 265.666 h 166.985 v 113.77 H 391.371 c -65.785,0 -97.965,-63.17 -96.144,-96.06 1.816,-32.9 7.863,-74.27 62.539,-123.98 49.863,-45.33 -24.696,-32.89 -32.18,-32.89 -37.953,0 -266.293,0 -266.293,0" /><path
         id="path18"
         style="fill:#bfc0c6;fill-opacity:1;fill-rule:evenodd;stroke:none"
         d="M 1206.07,1374.01 H 1006.19 L 894.152,994.574 h 124.688 l 20.24,53.126 h 131.56 l 19.53,-53.126 h 122.16 z m -139.16,-235.22 43.01,139.16 40.49,-139.16 z" /><path
         id="path20"
         style="fill:#bfc0c6;fill-opacity:1;fill-rule:evenodd;stroke:none"
         d="m 1707.03,1121.08 c -48.07,0 -48.07,17.71 -48.07,17.71 41.19,0 77.72,60.01 77.72,121.45 0,61.43 -60.01,113.77 -108.08,113.77 -48.08,0 -268.9,0 -268.9,0 V 994.574 h 136.62 v 126.506 c 0,0 58.19,-68.31 88.55,-96.15 30.36,-27.825 32.89,-30.356 74.09,-30.356 41.19,0 214.5,0 214.5,0 v 126.506 c 0,0 -118.36,0 -166.43,0 z m -123.98,88.55 c -34.71,0 -86.73,0 -86.73,0 v 68.32 c 0,0 58.9,0 86.73,0 39.76,0 46.63,-68.32 0,-68.32" /><path
         id="path22"
         style="fill:#bfc0c6;fill-opacity:1;fill-rule:evenodd;stroke:none"
         d="m 59.293,946.504 h 139.785 l 35.426,-126.508 32.891,126.508 H 414.141 L 452.09,819.996 490.043,946.504 H 611.488 L 500.164,566.984 H 388.84 L 340.055,746.621 285.105,566.984 H 171.25 L 59.293,946.504" /><path
         id="path24"
         style="fill:#bfc0c6;fill-opacity:1;fill-rule:evenodd;stroke:none"
         d="M 898.379,944.328 H 698.5 L 586.465,564.887 h 124.687 l 20.243,53.133 h 131.562 l 19.531,-53.133 H 1004.64 Z M 759.227,709.105 802.238,848.262 842.715,709.105 Z" /><path
         id="path26"
         style="fill:#bfc0c6;fill-opacity:1;fill-rule:evenodd;stroke:none"
         d="m 1709.56,832.645 c -22.77,0 -47.56,-2.649 -20.44,-27.95 l 47.34,-56.086 c 31.09,-35 30.58,-49.605 30.58,-76.074 0,-65.781 -65.07,-105.551 -108.08,-105.551 l -298.95,-2.015 c -41.19,0 -43.72,2.527 -74.09,30.359 -30.36,27.832 -88.55,96.145 -88.55,96.145 V 564.969 h -136.63 v 379.437 c 0,0 220.84,0 268.9,0 48.08,0 108.09,-52.34 108.09,-113.777 0,-61.434 -36.53,-121.445 -77.72,-121.445 0,0 18.11,-18.223 48.47,-18.223 30.36,0 147.26,-0.121 147.26,-0.121 7.48,0 82.04,-12.442 32.18,32.89 -54.68,49.708 -60.72,91.086 -62.54,123.981 -1.82,32.891 26.6,98.793 92.38,98.793 h 255.7 V 832.645 Z m -425.45,-52.618 c -34.72,0 -86.74,0 -86.74,0 v 68.313 c 0,0 58.9,0 86.74,0 39.75,0 46.62,-68.313 0,-68.313" /></g></g></svg>